#!OML:ASF Y:\EmotionMaleHayes\Project 1\Capture day 1\Session 1\Male1.ASF
:FULLY-SPECIFIED
:DEGREES
1073
root 34.7401 16.4622 18.0766 508.456 83.0415 513.305
lowerback 8.2651 0.258434 -7.42063
upperback 3.01086 -0.14161 0.0927566
thorax -1.47303 -0.0590788 4.28247
lowerneck -21.0009 3.14421 4.95044
upperneck 27.5198 4.23236 -3.40877
head 12.8709 2.06707 -1.39621
rclavicle 1.28666e-015 -1.26415e-014
rhumerus -39.3332 -3.53046 -81.3193
rradius 26.5159
rwrist 15.1486
rhand -6.42976 -33.9713
rfingers 7.12502
rthumb 19.4192 -63.0217
lclavicle 1.28666e-015 -1.26415e-014
lhumerus -30.4062 -9.0087 88.2957
lradius 37.6234
lwrist -2.41561
lhand -21.458 -25.9161
lfingers 7.12502
lthumb 4.93216 4.00654
rfemur -20.5987 -1.13267 5.48347
rtibia 41.6683
rfoot -14.2276 -3.5313
rtoes 13.3254
lfemur 18.6129 1.07278 -26.7576
ltibia 37.869
lfoot -1.81206 -1.43063
ltoes 13.7053
1074
root 34.893 16.4807 18.0684 513.108 83.4828 518.111
lowerback 8.4375 0.431898 -6.72247
upperback 3.05687 0.135807 0.2883
thorax -1.55935 0.0827917 4.06719
lowerneck -21.0371 3.05772 4.67039
upperneck 27.5399 4.06927 -2.97712
head 12.8601 2.0245 -1.20997
rclavicle -5.13851e-015 1.54741e-014
rhumerus -38.3847 -3.01813 -81.816
rradius 26.6819
rwrist 14.6193
rhand -7.49546 -33.5749
rfingers 7.12502
rthumb 18.3943 -62.7252
lclavicle -5.13851e-015 1.54741e-014
lhumerus -30.8855 -8.44645 88.2855
lradius 36.1513
lwrist -2.95083
lhand -21.6694 -25.4536
lfingers 7.12502
lthumb 4.72802 4.4736
rfemur -20.5987 -1.13267 5.48347
rtibia 41.6683
rfoot -14.2276 -3.5313
rtoes 13.3254
lfemur 17.5013 1.42928 -25.5892
ltibia 40.276
lfoot 0.363881 -1.10325
ltoes 16.2615
1075
root 35.0516 16.5014 18.0577 515.016 83.4612 520.13
lowerback 8.61965 0.593369 -6.3975
upperback 2.97275 0.357684 0.252747
thorax -1.77435 0.202977 3.82455
lowerneck -21.1218 2.8593 4.75739
upperneck 27.9417 3.78209 -2.97962
head 13.0303 1.91511 -1.27506
rclavicle -4.92924e-015 -9.00743e-015
rhumerus -37.8911 -2.76295 -82.2646
rradius 27.191
rwrist 14.2634
rhand -7.35424 -33.5886
rfingers 7.12502
rthumb 18.5301 -62.726
lclavicle -4.92924e-015 -9.00743e-015
lhumerus -31.688 -8.04411 88.2124
lradius 34.7663
lwrist -3.68678
lhand -21.4849 -24.4544
lfingers 7.12502
lthumb 4.90615 5.46877
rfemur -20.5987 -1.13267 5.48347
rtibia 41.6683
rfoot -14.2276 -3.5313
rtoes 13.3254
lfemur 16.3427 1.57607 -25.1113
ltibia 42.6525
lfoot 2.23011 -0.927427
ltoes 17.2011
1076
root 35.2023 16.5219 18.0481 520.298 83.5037 525.498
lowerback 8.79835 0.654235 -5.73079
upperback 2.8907 0.479014 0.354091
thorax -1.97147 0.270771 3.54092
lowerneck -21.0145 2.81943 5.02391
upperneck 28.0366 3.68931 -3.11074
head 13.0518 1.89063 -1.3883
rclavicle -7.75571e-015 7.47927e-015
rhumerus -37.2755 -1.93836 -82.9151
rradius 27.8504
rwrist 13.1888
rhand -7.15638 -34.3234
rfingers 7.12502
rthumb 18.7204 -63.4425
lclavicle -7.75571e-015 7.47927e-015
lhumerus -32.5468 -7.54047 88.1034
lradius 33.5021
lwrist -4.10923
lhand -21.072 -23.4267
lfingers 7.12502
lthumb 5.30484 6.48685
rfemur -20.5987 -1.13267 5.48347
rtibia 41.6683
rfoot -14.2276 -3.5313
rtoes 13.3254
lfemur 15.0978 1.635 -24.1747
ltibia 45.008
lfoot 3.62541 -0.960324
ltoes 17.6932
1077
root 35.3415 16.5413 18.042 531.421 83.6942 536.729
lowerback 8.93086 0.690415 -4.46438
upperback 2.93419 0.638363 0.68405
thorax -2.01154 0.350926 3.15239
lowerneck -21.018 2.7844 4.82785
upperneck 27.9026 3.64189 -2.93338
head 12.9866 1.87049 -1.294
rclavicle 2.42486e-014 -5.06901e-015
rhumerus -35.7546 -0.026823 -83.9794
rradius 26.8983
rwrist 11.8354
rhand -8.31777 -34.0602
rfingers 7.12502
rthumb 17.6031 -63.2833
lclavicle 2.42486e-014 -5.06901e-015
lhumerus -33.1903 -7.02722 87.9887
lradius 32.4298
lwrist -4.62537
lhand -20.4456 -22.1498
lfingers 7.12502
lthumb 5.90961 7.7478
rfemur -20.5987 -1.13267 5.48347
rtibia 41.6683
rfoot -14.2276 -3.5313
rtoes 13.3254
lfemur 13.7897 1.79053 -22.3593
ltibia 47.3118
lfoot 4.39058 -0.88837
ltoes 18.4721
1078
root 35.4847 16.5601 18.0323 540.014 83.5655 545.433
lowerback 8.96235 0.716739 -3.4937
upperback 3.05122 0.769018 0.933535
thorax -1.9132 0.414881 2.85006
lowerneck -21.0907 2.69701 4.67142
upperneck 27.7999 3.51683 -2.80449
head 12.9471 1.81311 -1.23862
rclavicle 3.47563e-015 1.93815e-015
rhumerus -34.8442 0.716403 -84.4873
rradius 27.7952
rwrist 10.7286
rhand -8.38708 -34.6826
rfingers 7.12502
rthumb 17.5364 -63.9117
lclavicle 3.47563e-015 1.93815e-015
lhumerus -33.8008 -6.40818 87.8102
lradius 31.4689
lwrist -5.61068
lhand -19.7995 -20.8374
lfingers 7.12502
lthumb 6.53337 9.04178
rfemur -20.5987 -1.13267 5.48347
rtibia 41.6683
rfoot -14.2276 -3.5313
rtoes 13.3254
lfemur 12.5659 1.95291 -20.9642
ltibia 49.4278
lfoot 3.80637 -0.683796
ltoes 16.0752
1079
root 35.6318 16.5789 18.0144 546.195 83.2963 551.678
lowerback 8.91035 0.744108 -2.66886
upperback 3.11127 0.885446 1.09453
thorax -1.8239 0.473323 2.54006
lowerneck -20.9757 2.71603 4.96888
upperneck 27.7141 3.52905 -3.07682
head 12.9013 1.81436 -1.39301
rclavicle 5.05658e-015 1.3418e-015
rhumerus -34.3922 1.0826 -84.807
rradius 29.2292
rwrist 10.4778
rhand -8.47487 -35.4011
rfingers 7.12502
rthumb 17.4519 -64.6377
lclavicle 5.05658e-015 1.3418e-015
lhumerus -34.3695 -5.98157 87.6454
lradius 30.3112
lwrist -6.55075
lhand -19.2182 -19.9353
lfingers 7.12502
lthumb 7.09454 9.92575
rfemur -20.5987 -1.13267 5.48347
rtibia 41.6683
rfoot -14.2276 -3.5313
rtoes 13.3254
lfemur 11.3164 2.1455 -19.9273
ltibia 51.4456
lfoot 2.18436 -0.37687
ltoes 11.0466
